<svg width="227" height="141" viewBox="0 0 227 141" fill="none" xmlns="http://www.w3.org/2000/svg">
<path fill-rule="evenodd" clip-rule="evenodd" d="M2.18709 59.9965C3.81988 44.9199 2.16523 27.5955 19.1858 17.3783C35.8411 7.38038 63.1458 12.5617 85.862 9.76769C106.482 7.23145 125.589 -2.19253 146.001 1.78029C166.846 5.83724 179.181 19.046 191.941 30.4138C205.09 42.1287 216.813 54.2199 220.615 68.2555C225.13 84.922 233.742 105.501 215.46 117.24C196.932 129.137 163.462 117.568 137.643 121.532C112.701 125.361 94.1797 142.811 68.5955 139.787C42.3561 136.685 22.1447 121.526 9.54602 106.389C-2.30206 92.1534 0.475722 75.7987 2.18709 59.9965Z" fill="#E9EAF0" fill-opacity="0.1"/>
</svg>
