<svg width="1931" height="686" viewBox="0 0 1931 686" fill="none" xmlns="http://www.w3.org/2000/svg">
<path d="M0.5 372.515C65.3587 344.789 270.979 372.515 323.138 372.515C375.298 372.515 391.172 348.366 431.085 348.366C451.28 348.366 537.263 417.115 641.082 433.334C792.117 348.366 861.542 412.603 894.167 402.924C996.671 372.515 1005.74 150.258 1005.74 0H1021.16C1021.16 162.332 1056.99 421.259 1212.11 402.924C1314.66 390.803 1290.12 372.515 1348.63 372.515C1407.14 372.515 1442.07 402.924 1513.27 402.924C1584.48 402.924 1628.48 348.366 1715.11 348.366L1717.19 348.366C1803.3 348.363 1899.95 348.359 1931 402.924V686H0.5V505V372.515Z" fill="url(#paint0_linear_67_668)"/>
<defs>
<linearGradient id="paint0_linear_67_668" x1="1054.5" y1="89.4394" x2="1054.5" y2="399.794" gradientUnits="userSpaceOnUse">
<stop stop-color="#F6F6F9"/>
<stop offset="1" stop-color="#9A9DBB"/>
</linearGradient>
</defs>
</svg>
