<svg width="237" height="245" viewBox="0 0 237 245" fill="none" xmlns="http://www.w3.org/2000/svg">
<path fill-rule="evenodd" clip-rule="evenodd" d="M58.7061 43.0782C78.0003 25.4319 97.6496 2.99201 122.089 0.780748C146.004 -1.38304 159.272 21.7493 178.853 32.2075C196.627 41.7007 221.603 41.7483 231.402 59.1643C241.409 76.949 234.335 100.841 229.778 122.716C225.082 145.258 218.914 167.393 204.753 187.08C187.937 210.458 169.342 241.185 142.173 244.506C114.637 247.871 104.647 213.063 81.4437 202.15C59.0288 191.609 24.8205 201.847 10.1876 182.436C-4.82003 162.528 -1.02602 131.401 8.17867 104.963C16.835 80.0994 38.4835 61.5737 58.7061 43.0782Z" fill="#E9EAF0" fill-opacity="0.1"/>
</svg>
