<svg width="78" height="76" viewBox="0 0 78 76" fill="none" xmlns="http://www.w3.org/2000/svg">
<path fill-rule="evenodd" clip-rule="evenodd" d="M59.5113 9.13938C66.4304 13.3216 74.902 17.0549 77.2433 24.7227C79.5343 32.2258 73.0456 39.252 71.0213 46.8346C69.1839 53.7175 70.8407 61.825 65.9427 67.0532C60.941 72.3922 52.8482 72.9092 45.5672 74.0051C38.0639 75.1344 30.5923 75.7387 23.3658 73.4616C14.7847 70.7578 3.74099 68.3418 0.863238 59.9191C-2.05335 51.3828 8.37832 44.046 10.3048 35.2348C12.1658 26.7231 6.61083 16.831 11.8214 9.80002C17.1654 2.58893 27.346 0.156614 36.3935 0.0312817C44.902 -0.0865838 52.2591 4.75589 59.5113 9.13938Z" fill="#E9EAF0" fill-opacity="0.1"/>
</svg>
