<svg width="180" height="206" viewBox="0 0 180 206" fill="none" xmlns="http://www.w3.org/2000/svg">
<path fill-rule="evenodd" clip-rule="evenodd" d="M148.17 16.0642C161.083 24.2976 177.513 30.6507 179.09 50.2369C180.634 69.4027 163.634 91.099 155.924 112.352C148.925 131.644 148.843 152.709 136.045 168.883C122.976 185.401 105.458 190.303 89.4146 196.409C72.8817 202.701 56.6509 207.569 42.2304 204.588C25.107 201.049 2.59435 199.352 0.20833 177.97C-2.20989 156.3 23.3509 132.057 31.4013 107.545C39.178 83.8669 31.7291 59.6993 45.9999 38.545C60.6362 16.849 83.4704 5.8933 102.854 1.62837C121.082 -2.38248 134.636 7.43471 148.17 16.0642Z" fill="#E9EAF0" fill-opacity="0.1"/>
</svg>
